<?xml version="1.0" encoding="UTF-8"?>
<svg id="Layer_1" data-name="Layer 1" xmlns="http://www.w3.org/2000/svg" version="1.1" viewBox="0 0 16 16">
  <defs>
    <style>
      .cls-1 {
        fill: #fcba00;
        stroke-width: 0px;
      }
    </style>
  </defs>
  <path class="cls-1" d="M5.2,2c-.3,0-.5-.1-.7-.3-.6-.7-1.7-.9-2.5-.4-1,.5-1.3,1.8-.7,2.7.1.2.3.4.4.5s.3.4.3.7v5.5c0,.3-.1.5-.3.7-.7.6-.9,1.7-.4,2.5.5,1,1.8,1.3,2.7.7.3-.2.6-.4.7-.7h1.3v-2h-1.3c-.1-.2-.3-.4-.4-.5s-.3-.4-.3-.7v-2.9c0-.9,1.1-1.3,1.7-.7l1.6,1.6c.2.2.4.3.7.3h0c.6,0,1-.4,1-1h0c0-.3-.1-.5-.3-.7l-1.6-1.6c-.6-.6-.2-1.7.7-1.7h2.9c.3,0,.5,0,.7.3s.3.3.5.4v1.3h2v-1.3c1-.6,1.3-1.8.7-2.7-.6-1-1.8-1.3-2.7-.7-.2.1-.4.3-.5.4s-.4.3-.7.3h-5.5ZM11,9v1c0,.6-.4,1-1,1h-1c-.6,0-1,.4-1,1h0c0,.6.4,1,1,1h1c.6,0,1,.4,1,1v1c0,.6.4,1,1,1h0c.6,0,1-.4,1-1v-1c0-.6.4-1,1-1h1c.6,0,1-.4,1-1h0c0-.6-.4-1-1-1h-1c-.6,0-1-.4-1-1v-1c0-.6-.4-1-1-1h0c-.6,0-1,.4-1,1Z"/>
</svg>